<svg width="122" height="117" viewBox="0 0 122 117" fill="none" xmlns="http://www.w3.org/2000/svg">
<path d="M11 18.1279V26.6663H28.9283H46.8566V18.1279V9.58953H28.9283H11V18.1279Z" fill="black"/>
<path d="M78.6255 37.5439V65.4983H94.5449C107.065 65.4866 110.418 65.4632 110.266 65.3462C110.172 65.2644 103.024 58.9951 94.4047 51.4041L78.7072 37.6024L88.7985 37.5322C98.5276 37.4737 98.9247 37.462 99.8825 37.2281C103.398 36.3626 106.119 34.5964 108.163 31.8712C109.016 30.7483 110.091 28.5026 110.464 27.0756C110.885 25.4966 110.99 22.6895 110.698 21.1105C109.74 16.0109 106.225 11.9054 101.424 10.2913C99.3335 9.58953 99.2751 9.58953 88.4831 9.58953H78.6255V37.5439Z" fill="black"/>
<path d="M11 51.5211V65.4983H17.015H23.0301V51.5211V37.5439H17.015H11V51.5211Z" fill="black"/>
<path d="M34.71 51.5211V65.4983H40.7834H46.8568V51.5211V37.5439H40.7834H34.71V51.5211Z" fill="black"/>
<path d="M46.8574 23.5963V37.5735L55.4858 29.9708L61.4862 24.7075L69.7642 17.4265L78.8305 9.61911H52.9308H46.8574V23.5963Z" fill="black"/>
<path d="M46.8574 51.5792V37.6021L55.4858 45.2047L61.4862 50.4681L69.7642 57.7491L78.8305 65.5564H52.9308H46.8574V51.5792Z" fill="black"/>
<path d="M11 79.4757V80.9378L15.0061 80.9612L19.0006 80.9963L19.0356 88.4469L19.059 95.9092H20.8109H22.5629V88.4235V80.9378H26.534H30.505V79.4757V78.0137H20.7525H11V79.4757Z" fill="black"/>
<path d="M35.7024 80.2594C35.1068 81.4992 33.1446 85.5111 31.3342 89.1721C29.5356 92.833 28.0522 95.8507 28.0522 95.8624C28.0522 95.8858 28.8815 95.9092 29.8976 95.9092H31.743L32.6774 93.8857L33.6118 91.8739L38.7975 91.8388L43.995 91.8154L44.9177 93.8623L45.8404 95.9092H47.6974H49.5428L49.2742 95.3478C49.1224 95.0436 47.1602 91.0201 44.9294 86.4L40.8648 78.0137H38.8326H36.8003L35.7024 80.2594ZM40.713 84.7625C41.7175 86.903 42.535 88.6808 42.535 88.7159C42.535 88.751 40.8765 88.7744 38.8559 88.7744C36.8354 88.7744 35.1768 88.7393 35.1768 88.6808C35.1768 88.5638 38.8209 80.8091 38.8676 80.8442C38.8793 80.8676 39.7202 82.6338 40.713 84.7625Z" fill="black"/>
<path d="M51.8779 86.9614V95.9092H53.6299H55.3818V93.102V90.2949L57.2739 88.7159C59.0843 87.2188 59.1894 87.1486 59.3529 87.3591C59.4464 87.4878 61.1049 89.4528 63.032 91.7453L66.5359 95.9092H68.7901C70.0398 95.9092 71.0326 95.8624 71.0092 95.8156C70.9975 95.7571 68.9302 93.3594 66.4191 90.4821C63.9197 87.593 61.864 85.1719 61.864 85.09C61.864 85.0081 63.6277 83.4876 65.7767 81.6981C67.9258 79.9085 69.7945 78.3529 69.923 78.2359C70.1449 78.0137 70.0982 78.0137 67.6805 78.0137H65.2044L60.3574 82.1074C57.6827 84.3531 55.4753 86.2012 55.4402 86.2012C55.4052 86.2012 55.3818 84.3531 55.3818 82.1074V78.0137H53.6299H51.8779V86.9614Z" fill="black"/>
<path d="M73.7192 86.9614V95.9092H81.895H90.0708V94.3886V92.8681H83.647H77.2231V90.5288V88.1896H82.6542H88.0852V86.669V85.1485H82.6542H77.2231L77.2465 83.0665L77.2815 80.9963L83.5652 80.9612L89.8372 80.9378V79.4757V78.0137H81.7782H73.7192V86.9614Z" fill="black"/>
<path d="M92.875 86.9497V95.9092H94.6269H96.3789V92.4003V88.8913L99.2054 88.9147L102.044 88.9498L104.601 92.4237L107.171 95.9092H109.32C111.084 95.9092 111.446 95.8858 111.364 95.7454C111.317 95.6636 110.103 94.0378 108.678 92.1546C107.241 90.2598 106.073 88.6808 106.073 88.634C106.073 88.5989 106.342 88.5405 106.68 88.5054C107.007 88.4586 107.673 88.248 108.14 88.0258C109.986 87.1486 110.978 85.4643 110.978 83.2186C110.978 81.0899 110.091 79.4991 108.491 78.774C106.984 78.0839 107.066 78.0839 99.6842 78.0371L92.875 78.002V86.9497ZM104.59 80.9378C105.956 81.0665 106.622 81.3355 107.077 81.9437C107.393 82.3531 107.416 82.4583 107.416 83.394C107.416 84.3298 107.393 84.435 107.077 84.8444C106.342 85.8152 105.244 85.9906 100.058 85.9439L96.4373 85.9088L96.4023 83.511C96.3906 82.201 96.4023 81.0548 96.4256 80.9729C96.5074 80.7857 102.779 80.7624 104.59 80.9378Z" fill="black"/>
<path d="M30.2717 101.663C29.6877 101.827 29.2438 102.178 28.9869 102.693C28.7299 103.196 28.6832 104.12 28.8818 104.646C29.057 105.114 29.6643 105.71 30.1315 105.862C30.6571 106.038 31.8718 106.038 32.3973 105.862C32.8645 105.71 33.4719 105.114 33.6471 104.646C33.9858 103.757 33.6588 102.494 32.993 102.014C32.3506 101.558 31.171 101.406 30.2717 101.663ZM31.9185 102.342C32.5258 102.517 32.8645 102.927 32.9346 103.605C33.0281 104.693 32.4557 105.266 31.2644 105.266C30.0731 105.266 29.5008 104.693 29.5942 103.605C29.6993 102.529 30.6688 101.991 31.9185 102.342Z" fill="black"/>
<path d="M43.7264 101.698C43.0957 101.897 42.792 102.154 42.5234 102.751C42.2547 103.324 42.2431 104.073 42.4766 104.646C42.8621 105.581 43.5745 105.991 44.7659 105.991C45.9805 105.991 46.7631 105.546 47.02 104.704C47.1018 104.47 47.0668 104.447 46.693 104.447C46.3893 104.447 46.2258 104.517 46.0973 104.728C45.8287 105.125 45.3265 105.301 44.579 105.242C43.5862 105.16 43.0139 104.447 43.1774 103.499C43.3877 102.26 45.1513 101.803 46.0389 102.751C46.3777 103.113 46.9733 103.16 46.9733 102.821C46.9733 102.47 46.2609 101.803 45.747 101.651C45.1396 101.488 44.3454 101.499 43.7264 101.698Z" fill="black"/>
<path d="M49.2516 101.698C47.9551 102.155 47.3945 103.874 48.177 105.055C49.0063 106.307 51.716 106.307 52.5452 105.055C53.3394 103.851 52.6971 102.026 51.3539 101.652C50.7232 101.476 49.8239 101.5 49.2516 101.698ZM51.167 102.412C51.9496 102.716 52.2883 103.57 51.9496 104.365C51.7043 104.962 51.167 105.266 50.3611 105.266C49.5552 105.266 49.018 104.962 48.7727 104.365C48.4457 103.582 48.7376 102.798 49.4851 102.447C50.0574 102.178 50.5714 102.166 51.167 102.412Z" fill="black"/>
<path d="M60.4625 101.687C60.2055 101.792 59.9019 101.979 59.7967 102.12C59.5865 102.365 59.5164 102.974 59.6566 103.336C59.7734 103.64 60.5092 103.944 61.502 104.096C62.7517 104.284 62.9736 104.377 62.9736 104.716C62.9736 105.079 62.5648 105.266 61.7356 105.266C61.0581 105.266 60.7428 105.161 60.334 104.775C60.1121 104.576 60.042 104.564 59.7033 104.705L59.3179 104.857L59.6332 105.231C60.042 105.722 60.7661 105.991 61.7005 105.991C63.0904 106.003 63.8496 105.547 63.8496 104.681C63.8496 103.851 63.3474 103.547 61.5136 103.266C60.6844 103.149 60.4041 103.009 60.4041 102.74C60.4041 102.085 62.3546 102.05 62.8568 102.705C63.0086 102.903 63.0904 102.915 63.4058 102.798C63.7445 102.681 63.7678 102.658 63.6393 102.377C63.3357 101.699 61.5136 101.301 60.4625 101.687Z" fill="black"/>
<path d="M102.182 101.686C101.271 102.026 100.816 102.716 100.816 103.733C100.816 104.47 100.968 104.88 101.423 105.347C101.879 105.827 102.428 106.014 103.327 105.991C104.413 105.979 105.044 105.64 105.441 104.891C105.663 104.459 105.663 104.447 105.207 104.447C104.904 104.447 104.705 104.552 104.402 104.856C104.028 105.23 103.934 105.266 103.327 105.266C102.907 105.266 102.533 105.195 102.323 105.067C101.949 104.844 101.633 104.271 101.633 103.815C101.633 103.359 101.925 102.739 102.241 102.529C102.918 102.084 104.098 102.201 104.542 102.763C104.775 103.055 105.488 103.172 105.488 102.915C105.488 102.61 104.986 102.002 104.588 101.815C104.004 101.534 102.755 101.476 102.182 101.686Z" fill="black"/>
<path d="M13.1023 103.195C13.1023 105.137 13.0556 105.219 11.8059 105.195C11 105.184 11 105.184 11 105.499C11 105.885 11.1635 105.967 11.9694 105.967C12.9038 105.967 13.4294 105.78 13.6863 105.347C13.8849 105.02 13.9199 104.751 13.9199 103.301V101.64H13.5111H13.1023V103.195Z" fill="black"/>
<path d="M15.2293 103.266C15.2644 105.114 15.3695 105.371 16.1871 105.781C16.7827 106.073 18.1843 106.073 18.78 105.781C19.5975 105.371 19.7026 105.114 19.7377 103.266L19.7844 101.64H19.3756H18.9668L18.9201 103.172C18.8851 104.681 18.8851 104.705 18.558 104.985C18.2894 105.219 18.1025 105.266 17.4835 105.266C16.8645 105.266 16.6776 105.219 16.409 104.985C16.082 104.705 16.082 104.681 16.0469 103.172L16.0002 101.64H15.5914H15.1826L15.2293 103.266Z" fill="black"/>
<path d="M21.0444 103.815V105.979L21.4299 105.944L21.8036 105.909L21.862 104.365L21.9204 102.821L23.3687 104.4C24.6885 105.839 24.852 105.979 25.179 105.944L25.5411 105.909L25.5761 103.769L25.5995 101.64H25.1907H24.7819V103.102C24.7819 103.909 24.7352 104.564 24.6768 104.564C24.6301 104.564 23.976 103.909 23.2519 103.102C22.0022 101.733 21.897 101.64 21.4883 101.64H21.0444V103.815Z" fill="black"/>
<path d="M26.8848 103.803V105.967H27.2936H27.7023V103.803V101.64H27.2936H26.8848V103.803Z" fill="black"/>
<path d="M34.8271 103.792V105.967H35.2359H35.6447V105.09V104.213H36.2871H36.9178L37.5719 105.09C38.1909 105.932 38.2376 105.967 38.6814 105.967C38.9384 105.967 39.1486 105.932 39.1486 105.885C39.1486 105.85 39.0201 105.64 38.8566 105.418C38.6931 105.207 38.4245 104.844 38.261 104.622L37.9573 104.225L38.3894 104.049C39.207 103.698 39.3589 102.482 38.6464 101.944C38.3544 101.721 38.1208 101.698 36.5674 101.663L34.8271 101.628V103.792ZM37.9923 102.458C38.2493 102.599 38.296 103.148 38.0741 103.371C37.9807 103.464 37.5252 103.511 36.7893 103.511H35.6447V102.926V102.341H36.7076C37.2916 102.341 37.8639 102.4 37.9923 102.458Z" fill="black"/>
<path d="M53.8643 103.804V105.968H54.273H54.6702L54.7052 104.377L54.7402 102.774L56.2002 104.342C57.4266 105.663 57.7185 105.909 58.0339 105.944L58.4193 105.979V103.815V101.64H58.0105H57.6134L57.5784 103.137L57.5434 104.634L56.1535 103.137C54.8337 101.71 54.7519 101.64 54.3198 101.64H53.8643V103.804Z" fill="black"/>
<path d="M64.8438 103.803V105.967H66.7709H68.698V105.558V105.149H67.1797H65.6613V104.622V104.096H66.9461H68.2309V103.745V103.394H66.9461H65.6613V102.868V102.341H67.1797H68.698V101.991V101.64H66.7709H64.8438V103.803Z" fill="black"/>
<path d="M69.6547 103.769L69.6897 105.909H70.0985H70.5073L70.5424 103.769L70.5657 101.64H70.0985H69.6313L69.6547 103.769Z" fill="black"/>
<path d="M71.8506 103.803V105.967H73.7777H75.7049V105.558V105.149H74.1865H72.6682V103.394V101.64H72.2594H71.8506V103.803Z" fill="black"/>
<path d="M78.9761 103.803V105.967L80.9383 105.944L82.8888 105.909V105.558V105.207L81.347 105.172L79.7937 105.137V104.622V104.096H81.1368H82.48V103.745V103.406L81.1719 103.371L79.852 103.336L79.817 102.833L79.782 102.341H81.3003H82.8304V101.991V101.64H80.9032H78.9761V103.803Z" fill="black"/>
<path d="M83.7885 103.769L83.8235 105.909H84.2323H84.6411L84.6762 105.056L84.7112 104.213H85.9376C87.6311 104.213 88.0866 103.956 88.0866 102.997C88.0866 101.839 87.6778 101.64 85.4003 101.64H83.7651L83.7885 103.769ZM87.0822 102.529C87.3041 102.74 87.3274 103.172 87.1289 103.371C87.0354 103.465 86.5799 103.512 85.8441 103.512H84.6995V102.927V102.342H85.7974C86.65 102.342 86.942 102.389 87.0822 102.529Z" fill="black"/>
<path d="M89.0205 103.803V105.967H89.4293H89.8381V103.803V101.64H89.4293H89.0205V103.803Z" fill="black"/>
<path d="M90.7715 101.991V102.342H91.7059H92.6286L92.6636 104.12L92.6986 105.909L93.0841 105.944L93.4578 105.979V104.166V102.342H94.4506H95.4434V101.991V101.64H93.1074H90.7715V101.991Z" fill="black"/>
<path d="M96.2617 103.803V105.967L98.2239 105.944L100.174 105.909V105.558V105.207L98.6327 105.172L97.0793 105.137V104.622V104.096H98.3641H99.6488V103.745V103.406L98.3991 103.371L97.1377 103.336L97.1027 102.833L97.0676 102.341H98.586H100.116V101.991V101.64H98.1889H96.2617V103.803Z" fill="black"/>
<path d="M106.562 103.769L106.597 105.909L106.983 105.944L107.357 105.979V105.044V104.096H108.817H110.277V105.032V105.968H110.685H111.094V103.804V101.64H110.685H110.277V102.459V103.277H108.817H107.357V102.459V101.64H106.948H106.539L106.562 103.769Z" fill="black"/>
</svg>
