<svg width="1146" height="1100" viewBox="0 0 1146 1100" fill="none" xmlns="http://www.w3.org/2000/svg">
<path d="M0 97.3337V194.667H204.667H409.333V97.3337V0.000320435H204.667H0V97.3337Z" fill="#152552"/>
<path d="M772 318.667V637.333H953.733C1096.67 637.2 1134.93 636.933 1133.2 635.6C1132.13 634.667 1050.53 563.2 952.133 476.667L772.933 319.333L888.133 318.533C999.2 317.867 1003.73 317.733 1014.67 315.067C1054.8 305.2 1085.87 285.067 1109.2 254C1118.93 241.2 1131.2 215.6 1135.47 199.333C1140.27 181.333 1141.47 149.333 1138.13 131.333C1127.2 73.2001 1087.07 26.4001 1032.27 8.00012C1008.4 0.00012207 1007.73 0.00012207 884.533 0.00012207H772V318.667Z" fill="#152552"/>
<path d="M0 478V637.333H68.6667H137.333V478V318.667H68.6667H0V478Z" fill="#152552"/>
<path d="M270.666 478V637.333H339.999H409.333V478V318.667H339.999H270.666V478Z" fill="#152552"/>
<path d="M409.332 159.667V319L507.832 232.333L576.332 172.333L670.832 89.3334L774.332 0.333313H478.665H409.332V159.667Z" fill="#152552"/>
<path d="M409.332 478.667V319.333L507.832 406L576.332 466L670.832 549L774.332 638H478.665H409.332V478.667Z" fill="#152552"/>
<path d="M0 796.667V813.334L45.7333 813.6L91.3333 814L91.7333 898.934L92 984H112H132V898.667V813.334H177.333H222.667V796.667V780H111.333H0V796.667Z" fill="#152552"/>
<path d="M281.999 805.6C275.199 819.734 252.799 865.467 232.133 907.2C211.599 948.934 194.666 983.334 194.666 983.467C194.666 983.734 204.133 984 215.733 984H236.799L247.466 960.934L258.133 938L317.333 937.6L376.666 937.334L387.199 960.667L397.733 984H418.933H439.999L436.933 977.6C435.199 974.134 412.799 928.267 387.333 875.6L340.933 780H317.733H294.533L281.999 805.6ZM339.199 856.934C350.666 881.334 359.999 901.6 359.999 902C359.999 902.4 341.066 902.667 317.999 902.667C294.933 902.667 275.999 902.267 275.999 901.6C275.999 900.267 317.599 811.867 318.133 812.267C318.266 812.534 327.866 832.667 339.199 856.934Z" fill="#152552"/>
<path d="M466.666 882V984H486.666H506.666V952V920L528.266 902C548.933 884.934 550.133 884.134 551.999 886.534C553.066 888 571.999 910.4 593.999 936.534L633.999 984H659.733C673.999 984 685.333 983.467 685.066 982.934C684.933 982.267 661.333 954.934 632.666 922.134C604.133 889.2 580.666 861.6 580.666 860.667C580.666 859.734 600.799 842.4 625.333 822C649.866 801.6 671.199 783.867 672.666 782.534C675.199 780 674.666 780 647.066 780H618.799L563.466 826.667C532.933 852.267 507.733 873.334 507.333 873.334C506.933 873.334 506.666 852.267 506.666 826.667V780H486.666H466.666V882Z" fill="#152552"/>
<path d="M716 882V984H809.333H902.667V966.667V949.334H829.333H756V922.667V896H818H880V878.667V861.334H818H756L756.267 837.6L756.667 814L828.4 813.6L900 813.334V796.667V780H808H716V882Z" fill="#152552"/>
<path d="M934.666 881.867V984H954.666H974.666V944V904L1006.93 904.267L1039.33 904.667L1068.53 944.267L1097.87 984H1122.4C1142.53 984 1146.67 983.734 1145.73 982.134C1145.2 981.2 1131.33 962.667 1115.07 941.2C1098.67 919.6 1085.33 901.6 1085.33 901.067C1085.33 900.667 1088.4 900 1092.27 899.6C1096 899.067 1103.6 896.667 1108.93 894.134C1130 884.134 1141.33 864.934 1141.33 839.334C1141.33 815.067 1131.2 796.934 1112.93 788.667C1095.73 780.8 1096.67 780.8 1012.4 780.267L934.666 779.867V881.867ZM1068.4 813.334C1084 814.8 1091.6 817.867 1096.8 824.8C1100.4 829.467 1100.67 830.667 1100.67 841.334C1100.67 852 1100.4 853.2 1096.8 857.867C1088.4 868.934 1075.87 870.934 1016.67 870.4L975.333 870L974.933 842.667C974.799 827.734 974.933 814.667 975.199 813.734C976.133 811.6 1047.73 811.334 1068.4 813.334Z" fill="#152552"/>
<path d="M219.999 1049.6C213.332 1051.47 208.266 1055.47 205.332 1061.33C202.399 1067.07 201.866 1077.6 204.132 1083.6C206.132 1088.93 213.066 1095.73 218.399 1097.47C224.399 1099.47 238.266 1099.47 244.266 1097.47C249.599 1095.73 256.532 1088.93 258.532 1083.6C262.399 1073.47 258.666 1059.07 251.066 1053.6C243.732 1048.4 230.266 1046.67 219.999 1049.6ZM238.799 1057.33C245.732 1059.33 249.599 1064 250.399 1071.73C251.466 1084.13 244.932 1090.67 231.332 1090.67C217.732 1090.67 211.199 1084.13 212.266 1071.73C213.466 1059.47 224.532 1053.33 238.799 1057.33Z" fill="#152552"/>
<path d="M373.601 1050C366.401 1052.27 362.934 1055.2 359.867 1062C356.801 1068.53 356.667 1077.07 359.334 1083.6C363.734 1094.27 371.867 1098.93 385.467 1098.93C399.334 1098.93 408.267 1093.87 411.201 1084.27C412.134 1081.6 411.734 1081.33 407.467 1081.33C404.001 1081.33 402.134 1082.13 400.667 1084.53C397.601 1089.07 391.867 1091.07 383.334 1090.4C372.001 1089.47 365.467 1081.33 367.334 1070.53C369.734 1056.4 389.867 1051.2 400.001 1062C403.867 1066.13 410.667 1066.67 410.667 1062.8C410.667 1058.8 402.534 1051.2 396.667 1049.47C389.734 1047.6 380.667 1047.73 373.601 1050Z" fill="#152552"/>
<path d="M436.666 1050C421.866 1055.2 415.466 1074.8 424.399 1088.27C433.866 1102.53 464.799 1102.53 474.266 1088.27C483.332 1074.53 475.999 1053.73 460.666 1049.47C453.466 1047.47 443.199 1047.73 436.666 1050ZM458.532 1058.13C467.466 1061.6 471.332 1071.33 467.466 1080.4C464.666 1087.2 458.532 1090.67 449.332 1090.67C440.132 1090.67 433.999 1087.2 431.199 1080.4C427.466 1071.47 430.799 1062.53 439.332 1058.53C445.866 1055.47 451.732 1055.33 458.532 1058.13Z" fill="#152552"/>
<path d="M564.666 1049.87C561.733 1051.07 558.266 1053.2 557.066 1054.8C554.666 1057.6 553.866 1064.53 555.466 1068.67C556.8 1072.13 565.2 1075.6 576.533 1077.33C590.8 1079.47 593.333 1080.53 593.333 1084.4C593.333 1088.53 588.666 1090.67 579.2 1090.67C571.466 1090.67 567.866 1089.47 563.2 1085.07C560.666 1082.8 559.866 1082.67 556 1084.27L551.6 1086L555.2 1090.27C559.866 1095.87 568.133 1098.93 578.8 1098.93C594.666 1099.07 603.333 1093.87 603.333 1084C603.333 1074.53 597.6 1071.07 576.666 1067.87C567.2 1066.53 564 1064.93 564 1061.87C564 1054.4 586.266 1054 592 1061.47C593.733 1063.73 594.666 1063.87 598.266 1062.53C602.133 1061.2 602.4 1060.93 600.933 1057.73C597.466 1050 576.666 1045.47 564.666 1049.87Z" fill="#152552"/>
<path d="M1040.93 1049.87C1030.53 1053.73 1025.33 1061.6 1025.33 1073.2C1025.33 1081.6 1027.07 1086.27 1032.27 1091.6C1037.47 1097.07 1043.73 1099.2 1054 1098.93C1066.4 1098.8 1073.6 1094.93 1078.13 1086.4C1080.67 1081.47 1080.67 1081.33 1075.47 1081.33C1072 1081.33 1069.73 1082.53 1066.27 1086C1062 1090.27 1060.93 1090.67 1054 1090.67C1049.2 1090.67 1044.93 1089.87 1042.53 1088.4C1038.27 1085.87 1034.67 1079.33 1034.67 1074.13C1034.67 1068.93 1038 1061.87 1041.6 1059.47C1049.33 1054.4 1062.8 1055.73 1067.87 1062.13C1070.53 1065.47 1078.67 1066.8 1078.67 1063.87C1078.67 1060.4 1072.93 1053.47 1068.4 1051.33C1061.73 1048.13 1047.47 1047.47 1040.93 1049.87Z" fill="#152552"/>
<path d="M24 1067.07C24 1089.2 23.4667 1090.13 9.2 1089.87C0 1089.73 0 1089.73 0 1093.33C0 1097.73 1.86667 1098.67 11.0667 1098.67C21.7333 1098.67 27.7333 1096.53 30.6667 1091.6C32.9333 1087.87 33.3333 1084.8 33.3333 1068.27V1049.33H28.6667H24V1067.07Z" fill="#152552"/>
<path d="M48.2658 1067.87C48.6658 1088.93 49.8658 1091.87 59.1991 1096.53C65.9991 1099.87 81.9991 1099.87 88.7991 1096.53C98.1324 1091.87 99.3324 1088.93 99.7324 1067.87L100.266 1049.33H95.5991H90.9324L90.3991 1066.8C89.9991 1084 89.9991 1084.27 86.2658 1087.47C83.1991 1090.13 81.0658 1090.67 73.9991 1090.67C66.9324 1090.67 64.7991 1090.13 61.7324 1087.47C57.9991 1084.27 57.9991 1084 57.5991 1066.8L57.0658 1049.33H52.3991H47.7324L48.2658 1067.87Z" fill="#152552"/>
<path d="M114.666 1074.13V1098.8L119.066 1098.4L123.333 1098L123.999 1080.4L124.666 1062.8L141.199 1080.8C156.266 1097.2 158.133 1098.8 161.866 1098.4L165.999 1098L166.399 1073.6L166.666 1049.33H161.999H157.333V1066C157.333 1075.2 156.799 1082.67 156.133 1082.67C155.599 1082.67 148.133 1075.2 139.866 1066C125.599 1050.4 124.399 1049.33 119.733 1049.33H114.666V1074.13Z" fill="#152552"/>
<path d="M181.334 1074V1098.67H186.001H190.667V1074V1049.33H186.001H181.334V1074Z" fill="#152552"/>
<path d="M272 1073.87V1098.67H276.667H281.333V1088.67V1078.67H288.667H295.867L303.333 1088.67C310.4 1098.27 310.933 1098.67 316 1098.67C318.933 1098.67 321.333 1098.27 321.333 1097.73C321.333 1097.33 319.867 1094.93 318 1092.4C316.133 1090 313.067 1085.87 311.2 1083.33L307.733 1078.8L312.667 1076.8C322 1072.8 323.733 1058.93 315.6 1052.8C312.267 1050.27 309.6 1050 291.867 1049.6L272 1049.2V1073.87ZM308.133 1058.67C311.067 1060.27 311.6 1066.53 309.067 1069.07C308 1070.13 302.8 1070.67 294.4 1070.67H281.333V1064V1057.33H293.467C300.133 1057.33 306.667 1058 308.133 1058.67Z" fill="#152552"/>
<path d="M489.334 1074V1098.67H494.001H498.534L498.934 1080.53L499.334 1062.27L516.001 1080.13C530.001 1095.2 533.334 1098 536.934 1098.4L541.334 1098.8V1074.13V1049.33H536.667H532.134L531.734 1066.4L531.334 1083.47L515.467 1066.4C500.401 1050.13 499.467 1049.33 494.534 1049.33H489.334V1074Z" fill="#152552"/>
<path d="M614.666 1074V1098.67H636.666H658.666V1094V1089.33H641.333H623.999V1083.33V1077.33H638.666H653.333V1073.33V1069.33H638.666H623.999V1063.33V1057.33H641.333H658.666V1053.33V1049.33H636.666H614.666V1074Z" fill="#152552"/>
<path d="M669.601 1073.6L670.001 1098H674.667H679.334L679.734 1073.6L680.001 1049.33H674.667H669.334L669.601 1073.6Z" fill="#152552"/>
<path d="M694.666 1074V1098.67H716.666H738.666V1094V1089.33H721.333H703.999V1069.33V1049.33H699.333H694.666V1074Z" fill="#152552"/>
<path d="M776 1074V1098.67L798.4 1098.4L820.667 1098V1094V1090L803.067 1089.6L785.333 1089.2V1083.33V1077.33H800.667H816V1073.33V1069.47L801.067 1069.07L786 1068.67L785.6 1062.93L785.2 1057.33H802.533H820V1053.33V1049.33H798H776V1074Z" fill="#152552"/>
<path d="M830.933 1073.6L831.333 1098H835.999H840.666L841.066 1088.27L841.466 1078.67H855.466C874.799 1078.67 879.999 1075.73 879.999 1064.8C879.999 1051.6 875.333 1049.33 849.333 1049.33H830.666L830.933 1073.6ZM868.533 1059.47C871.066 1061.87 871.333 1066.8 869.066 1069.07C867.999 1070.13 862.799 1070.67 854.399 1070.67H841.333V1064V1057.33H853.866C863.599 1057.33 866.933 1057.87 868.533 1059.47Z" fill="#152552"/>
<path d="M890.666 1074V1098.67H895.333H899.999V1074V1049.33H895.333H890.666V1074Z" fill="#152552"/>
<path d="M910.666 1053.33V1057.33H921.333H931.866L932.266 1077.6L932.666 1098L937.066 1098.4L941.333 1098.8V1078.13V1057.33H952.666H963.999V1053.33V1049.33H937.333H910.666V1053.33Z" fill="#152552"/>
<path d="M973.334 1074V1098.67L995.734 1098.4L1018 1098V1094V1090L1000.4 1089.6L982.667 1089.2V1083.33V1077.33H997.334H1012V1073.33V1069.47L997.734 1069.07L983.334 1068.67L982.934 1062.93L982.534 1057.33H999.867H1017.33V1053.33V1049.33H995.334H973.334V1074Z" fill="#152552"/>
<path d="M1090.93 1073.6L1091.33 1098L1095.73 1098.4L1100 1098.8V1088.13V1077.33H1116.67H1133.33V1088V1098.67H1138H1142.67V1074V1049.33H1138H1133.33V1058.67V1068H1116.67H1100V1058.67V1049.33H1095.33H1090.67L1090.93 1073.6Z" fill="#152552"/>
</svg>
